<?xml version="1.0" standalone="no"?>
<!DOCTYPE svg PUBLIC "-//W3C//DTD SVG 20010904//EN"
 "http://www.w3.org/TR/2001/REC-SVG-20010904/DTD/svg10.dtd">
<svg version="1.0" xmlns="http://www.w3.org/2000/svg"
 width="115.000000pt" height="117.000000pt" viewBox="0 0 115.000000 117.000000"
 preserveAspectRatio="xMidYMid meet">

<g transform="translate(0.000000,117.000000) scale(0.100000,-0.100000)"
fill="#000000" stroke="none">
<path d="M502 1067 l-82 -82 218 -218 217 -217 85 85 85 85 -215 215 c-118
118 -217 215 -220 215 -3 0 -42 -37 -88 -83z m281 -155 l187 -187 -58 -58 -57
-57 -190 190 -190 190 55 55 c30 30 57 55 60 55 3 0 90 -84 193 -188z"/>
<path d="M302 867 l-82 -82 288 -288 287 -287 85 85 85 85 -285 285 c-157 157
-287 285 -290 285 -3 0 -42 -37 -88 -83z m551 -549 l-58 -58 -259 259 -259
259 54 60 54 60 262 -261 263 -262 -57 -57z"/>
<path d="M90 655 l-75 -75 56 -56 c47 -47 57 -53 68 -40 10 12 6 22 -25 56
l-37 41 61 62 c49 49 60 65 50 75 -7 7 -15 12 -18 12 -3 0 -39 -34 -80 -75z"/>
<path d="M237 520 l-82 -79 217 -218 218 -218 85 85 85 85 -212 212 c-117 117
-216 213 -221 213 -4 0 -45 -36 -90 -80z m410 -399 c-29 -31 -54 -56 -57 -56
-3 0 -88 85 -189 188 l-185 188 54 54 55 55 187 -187 187 -187 -52 -55z"/>
<path d="M1062 527 l-62 -61 -43 42 c-39 39 -45 41 -57 27 -12 -14 -6 -23 41
-71 l54 -54 78 78 c63 63 76 81 65 90 -11 9 -27 -2 -76 -51z"/>
</g>
</svg>
